<svg width="56" height="56" viewBox="0 0 56 56" fill="none" xmlns="http://www.w3.org/2000/svg">
<path fill-rule="evenodd" clip-rule="evenodd" d="M33.283 18.2266H23.7736V25.3586C23.7736 26.6716 24.838 27.736 26.1509 27.736H30.9057C32.2186 27.736 33.283 26.6716 33.283 25.3586V18.2266ZM27.7359 21.3964C27.2982 21.3964 26.9434 21.7512 26.9434 22.1888C26.9434 22.6265 27.2982 22.9813 27.7359 22.9813H29.3208C29.7584 22.9813 30.1132 22.6265 30.1132 22.1888C30.1132 21.7512 29.7584 21.3964 29.3208 21.3964H27.7359Z" fill="#23395B"/>
<path fill-rule="evenodd" clip-rule="evenodd" d="M27.7359 29.3209H18.2264V36.453C18.2264 37.766 19.2908 38.8303 20.6038 38.8303H25.3585C26.6715 38.8303 27.7359 37.766 27.7359 36.453V29.3209ZM22.1887 32.4907C21.751 32.4907 21.3962 32.8455 21.3962 33.2832C21.3962 33.7208 21.751 34.0756 22.1887 34.0756H23.7736C24.2112 34.0756 24.566 33.7208 24.566 33.2832C24.566 32.8455 24.2112 32.4907 23.7736 32.4907H22.1887Z" fill="#23395B"/>
<path fill-rule="evenodd" clip-rule="evenodd" d="M29.3208 29.3209H38.8302V36.453C38.8302 37.766 37.7658 38.8303 36.4528 38.8303H31.6981C30.3851 38.8303 29.3208 37.766 29.3208 36.453V29.3209ZM32.4906 33.2832C32.4906 32.8455 32.8454 32.4907 33.283 32.4907H34.8679C35.3056 32.4907 35.6604 32.8455 35.6604 33.2832C35.6604 33.7208 35.3056 34.0756 34.8679 34.0756H33.283C32.8454 34.0756 32.4906 33.7208 32.4906 33.2832Z" fill="#23395B"/>
</svg>
