<svg width="56" height="56" viewBox="0 0 56 56" fill="none" xmlns="http://www.w3.org/2000/svg">
<path d="M19.9403 20.7468L20.6021 19.7531C21.2127 18.8363 22.5328 18.7657 23.2375 19.6122L25.6564 22.5176C26.2424 23.2215 26.0284 24.1793 25.5574 24.9649C25.1527 25.64 25.1407 26.4884 25.5693 27.1486C26.7313 28.9386 27.813 30.02 29.5849 31.17C30.2444 31.598 31.0912 31.5852 31.7652 31.1804C32.5508 30.7086 33.8397 30.8258 34.5434 31.4129L37.4451 33.8332C38.2908 34.5386 38.2203 35.86 37.3044 36.4712L36.3385 37.1157C34.5324 38.3209 32.1717 38.3645 30.3853 37.1304C25.7417 33.9223 22.9876 31.173 19.9064 26.6639C18.6903 24.8842 18.7454 22.5408 19.9403 20.7468Z" fill="#0996CD"/>
<path fill-rule="evenodd" clip-rule="evenodd" d="M37.5363 20.5668C37.8486 20.8734 37.8532 21.3752 37.5466 21.6874L33.4472 25.8626C33.0662 26.2506 32.4325 26.2473 32.0562 25.8524L30.0678 23.766C29.7659 23.4491 29.778 22.9475 30.0948 22.6456C30.4116 22.3437 30.9133 22.3557 31.2152 22.6726L32.7632 24.297L36.4157 20.5771C36.7223 20.2648 37.224 20.2602 37.5363 20.5668Z" fill="#0996CD"/>
</svg>
