<svg width="56" height="56" viewBox="0 0 56 56" fill="none" xmlns="http://www.w3.org/2000/svg">
<path d="M22.4015 26.1643L19.6899 26.6485C19.5865 26.667 19.5123 26.7666 19.5169 26.8788C19.6687 30.5831 19.5333 32.7488 19.0211 36.4474C19.0045 36.5672 19.0804 36.6805 19.1919 36.7004L21.8867 37.1815C22.0019 37.2021 22.1104 37.1154 22.1262 36.9914C22.6416 32.9549 23.0725 30.3933 22.6405 26.3577C22.6271 26.2321 22.5178 26.1436 22.4015 26.1643Z" fill="#23395B"/>
<path d="M29.0091 37.6295L25.4428 36.3465C25.1772 36.251 24.8989 36.2023 24.6188 36.2023H23.407C23.1667 36.2023 23.1114 35.9119 23.1941 35.6863C24.0455 33.3622 23.8334 29.439 23.5642 27.3056C23.5252 26.9958 23.6172 26.6836 23.8231 26.449L23.8367 26.4336C25.1059 24.9881 26.0278 23.9381 27.954 23.1065C29.0344 22.6401 29.5259 21.071 29.7405 19.991C29.8442 19.4692 30.3719 19.1362 30.8291 19.3477L31.725 19.7621C32.6543 20.1919 33.2172 21.2303 33.0679 22.3027C32.8138 24.1269 32.6716 24.0704 32.1168 25.1511C31.9997 25.3793 31.8331 25.5776 31.582 25.6303C31.3344 25.6822 30.949 25.7257 30.3808 25.7257H35.5194C36.9641 25.7257 38.1516 26.9951 38.029 28.5373C37.8129 31.2547 37.2598 33.4204 35.9438 36.2982C35.5244 37.2152 34.6399 37.7738 33.6867 37.7738H29.8331C29.553 37.7738 29.2747 37.725 29.0091 37.6295Z" fill="#23395B"/>
</svg>
