<svg width="167" height="145" viewBox="0 0 167 145" fill="none" xmlns="http://www.w3.org/2000/svg">
<g clip-path="url(#clip0_2114_828)">
<path d="M117.563 0V56.8725H58.002L89.2967 145V87.0866H149.255L117.563 0Z" fill="#0776A1"/>
<path opacity="0.5" d="M19.5448 106.066H29.2644V120.5C25.331 121.833 20.0172 121.832 15.3031 121.832C10.13 121.832 6.73856 119.834 3.91498 116.863C1.09224 113.893 0 110.957 0 104.749C0 99.384 1.54204 95.6235 4.63365 92.6377C7.72527 89.6519 11.1779 88.1532 15.9548 88.0503C18.0664 88.0047 20.8087 87.8629 22.6841 88.2569C24.5587 88.6508 26.192 89.1509 27.5858 89.7572L24.5151 97.3951C20.7049 95.2628 10.6393 96.3153 10.6393 105.256C10.6393 110.875 13.9529 114.216 16.0863 114.216C17.4323 114.216 18.4123 114.223 19.5448 113.965V108.852V106.066Z" fill="white"/>
<path d="M19.6247 106.066H29.3443V120.5C25.4109 121.833 20.0971 121.832 15.3831 121.832C10.21 121.832 6.8185 119.834 3.99492 116.863C1.17134 113.893 0.0791016 110.957 0.0791016 104.749C0.0791016 99.384 1.62114 95.6235 4.71276 92.6377C7.80437 89.6519 11.257 88.1532 16.0339 88.0503C18.1455 88.0047 20.8878 87.8629 22.7632 88.2569C24.6378 88.6508 26.2711 89.1509 27.6649 89.7572L24.5942 97.3951C20.784 95.2628 10.7184 96.3153 10.7184 105.256C10.7184 110.875 14.032 114.216 16.1654 114.216C17.5114 114.216 18.4914 114.223 19.6239 113.965V108.852V106.066H19.6247Z" fill="white"/>
<path d="M35.3291 73.453V77.4855H33.71V67.3909H36.5076C37.7849 67.3909 38.7314 67.6356 39.3454 68.1224C39.9594 68.6101 40.2668 69.3475 40.2668 70.332C40.2668 71.5885 39.6252 72.4842 38.3436 73.0175L41.1412 77.4847H39.2993L36.9289 73.4521L35.3291 73.453ZM35.3291 72.0861H36.4531C37.207 72.0861 37.7539 71.9435 38.0923 71.6582C38.4307 71.3728 38.5999 70.9499 38.5999 70.3875C38.5999 69.8169 38.4173 69.4072 38.0513 69.1584C37.6853 68.9095 37.1341 68.7851 36.3987 68.7851H35.3282L35.3291 72.0861Z" fill="white"/>
<path d="M47.8306 77.4855H42.2295V67.3909H47.8306V68.786H43.8486V71.5338H47.5801V72.9147H43.8486V76.0838H47.8314L47.8306 77.4855Z" fill="white"/>
<path d="M51.2299 77.4855H49.625V67.3909H54.3458V68.786H51.2299V71.9418H54.0945V73.3435H51.2299V77.4855Z" fill="white"/>
<path d="M56.6592 77.4855V67.3909H58.2783V76.0705H61.6036V77.4863L56.6592 77.4855Z" fill="white"/>
<path d="M67.698 77.4855H62.9639V67.3909H67.698V68.786H64.5821V71.5338H67.4468V72.9147H64.5821V76.0838H67.698V77.4855Z" fill="white"/>
<path d="M74.9098 68.6616C73.7958 68.6616 72.9197 68.9975 72.2823 69.6693C71.644 70.3419 71.3249 71.2692 71.3249 72.4519C71.3249 73.6902 71.6314 74.6266 72.2454 75.2619C72.8585 75.8972 73.7472 76.2149 74.9098 76.2149C75.4124 76.2149 75.8991 76.1726 76.3698 76.0871C76.8405 76.0017 77.3297 75.8931 77.8381 75.7595V77.1753C76.9075 77.4747 75.8538 77.624 74.6745 77.624C72.939 77.624 71.6055 77.1761 70.6757 76.2812C69.7451 75.3863 69.2803 74.1057 69.2803 72.4386C69.2803 71.3894 69.5056 70.4705 69.9579 69.6834C70.4094 68.8963 71.0619 68.2933 71.9171 67.8745C72.7714 67.4556 73.7749 67.2458 74.9266 67.2458C76.1378 67.2458 77.2568 67.4622 78.2846 67.8952L77.5868 69.2695C77.1865 69.1086 76.7635 68.9668 76.3179 68.8448C75.8714 68.7229 75.4015 68.6616 74.9098 68.6616Z" fill="white"/>
<path d="M83.1196 77.4855H81.5005V68.8067H79.4551V67.3909H85.1642V68.8067H83.1188L83.1196 77.4855Z" fill="white"/>
<path d="M86.335 77.4855V67.3909H87.9541V77.4855H86.335Z" fill="white"/>
<path d="M99.7252 72.4245C99.7252 74.0675 99.2603 75.3456 98.3305 76.2563C97.4008 77.1678 96.0841 77.6232 94.3812 77.6232C92.6566 77.6232 91.3323 77.1712 90.4076 76.2663C89.4829 75.3614 89.0205 74.0767 89.0205 72.4096C89.0205 70.7433 89.4854 69.4636 90.4151 68.5703C91.3449 67.6771 92.6716 67.2308 94.3963 67.2308C96.0941 67.2308 97.4067 67.6845 98.3339 68.591C99.2611 69.4992 99.7252 70.7765 99.7252 72.4245ZM91.0048 72.4245C91.0048 73.6678 91.2888 74.61 91.8567 75.2519C92.4237 75.8939 93.2655 76.2149 94.3804 76.2149C95.4902 76.2149 96.3261 75.8972 96.8924 75.2619C97.4577 74.6266 97.74 73.681 97.74 72.4237C97.74 71.1854 97.4594 70.2465 96.8999 69.6062C96.3404 68.9668 95.5053 68.6466 94.3963 68.6466C93.2756 68.6466 92.4313 68.9668 91.8608 69.6062C91.2904 70.2474 91.0048 71.1862 91.0048 72.4245Z" fill="white"/>
<path d="M109.042 77.4855H107.058L102.188 69.442H102.134L102.167 69.8907C102.23 70.7467 102.262 71.5296 102.262 72.2387V77.4863H100.792V67.3909H102.756L107.613 75.3938H107.654C107.644 75.2884 107.627 74.9028 107.599 74.2376C107.572 73.5724 107.558 73.0532 107.558 72.6808V67.3917H109.042L109.042 77.4855Z" fill="white"/>
<path d="M57.8525 121.526H48.9219V88.2925H68.7565V95.4983H57.8525V101.84H67.0695V109.046H57.8525V121.526Z" fill="white"/>
<path d="M33.7676 88.7786H43.8323V121.04H33.7676V88.7786Z" fill="white"/>
<path d="M118.401 121.832V89.569H134.939V93.4331H122.962V103.023H134.922V106.795H122.962V117.968H137.79V121.832H118.401V121.832Z" fill="white"/>
<path d="M155.823 121.739C153.535 121.739 151.45 121.366 149.57 120.622C147.69 119.877 146.075 118.79 144.728 117.363C143.38 115.935 142.337 114.174 141.601 112.079C140.864 109.984 140.497 107.586 140.497 104.886C140.497 102.186 140.912 99.7888 141.743 97.6937C142.573 95.5987 143.693 93.8379 145.104 92.4096C146.515 90.9823 148.16 89.8957 150.042 89.1509C151.922 88.4062 153.928 88.0338 156.06 88.0338C157.407 88.0338 158.622 88.1266 159.703 88.3124C160.785 88.4982 161.725 88.7163 162.525 88.9643C163.324 89.2132 163.974 89.4611 164.476 89.7091C164.977 89.958 166.474 90.765 166.661 90.8877L165.346 94.6125C165.063 94.4259 163.504 93.6048 162.971 93.3867C162.437 93.1694 161.835 92.9521 161.161 92.7348C160.487 92.5183 159.75 92.3392 158.951 92.199C158.152 92.0588 157.345 91.99 156.53 91.99C154.805 91.99 153.254 92.2852 151.874 92.8741C150.496 93.4638 149.32 94.3173 148.348 95.4345C147.376 96.5517 146.632 97.9094 146.115 99.5076C145.598 101.107 145.339 102.899 145.339 104.885C145.339 106.81 145.566 108.563 146.02 110.145C146.474 111.729 147.156 113.086 148.066 114.219C148.974 115.352 150.11 116.229 151.474 116.849C152.838 117.471 154.427 117.781 156.246 117.781C158.346 117.781 160.085 117.564 161.464 117.129C162.843 116.694 165.135 115.667 165.825 115.325L167 119.049C166.78 119.205 166.389 119.398 165.825 119.631C165.261 119.864 163.298 120.73 162.452 120.947C161.605 121.163 160.618 121.35 159.49 121.506C158.362 121.661 157.14 121.739 155.823 121.739Z" fill="white"/>
<path d="M115.946 89.4031V93.3137H105.697V121.666H101.138V93.3137H90.8877V89.4031H115.946Z" fill="white"/>
</g>
<defs>
<clipPath id="clip0_2114_828">
<rect width="167" height="145" fill="white"/>
</clipPath>
</defs>
</svg>
